<?xml version="1.0" standalone="no"?>
<!DOCTYPE svg PUBLIC "-//W3C//DTD SVG 20010904//EN"
 "http://www.w3.org/TR/2001/REC-SVG-20010904/DTD/svg10.dtd">
<svg version="1.0" xmlns="http://www.w3.org/2000/svg"
 width="700.000000pt" height="700.000000pt" viewBox="0 0 700.000000 700.000000"
 preserveAspectRatio="xMidYMid meet">
<metadata>
Created by potrace 1.11, written by Peter Selinger 2001-2013
</metadata>
<g transform="translate(0.000000,700.000000) scale(0.100000,-0.100000)"
fill="#000000" stroke="none">
<path d="M3486 6963 c-7 -25 -54 -165 -93 -269 l-15 -41 -126 -1 c-70 0 -151
-1 -181 -1 l-54 -1 89 -65 c49 -36 105 -77 124 -90 19 -13 45 -32 57 -42 l23
-18 -41 -130 c-22 -71 -47 -147 -54 -168 -19 -51 -16 -50 143 67 71 53 133 96
136 96 6 0 50 -29 85 -57 52 -41 206 -151 209 -148 1 1 -2 13 -7 26 -27 66
-100 314 -93 320 11 10 234 173 262 192 22 15 23 17 5 18 -11 0 -93 1 -182 1
l-162 1 -41 131 c-68 215 -73 225 -84 179z"/>
<path d="M1955 6468 c-21 -62 -46 -137 -57 -165 l-19 -53 -182 0 -182 0 130
-96 c72 -53 138 -102 147 -108 16 -12 15 -21 -23 -142 -70 -221 -68 -215 -56
-207 7 4 72 51 146 105 73 54 138 95 145 91 6 -3 67 -47 136 -98 162 -118 151
-114 133 -57 -13 42 -28 91 -78 246 -8 28 -11 52 -6 55 4 3 70 51 145 106
l136 100 -181 5 -181 5 -27 85 c-15 47 -38 120 -51 163 -13 42 -27 77 -30 77
-4 0 -24 -51 -45 -112z"/>
<path d="M4955 6468 c-21 -62 -46 -137 -57 -165 l-19 -53 -180 -2 -179 -3 137
-100 c75 -55 140 -102 145 -106 4 -3 -11 -63 -33 -135 -61 -193 -67 -214 -65
-214 3 0 258 187 274 200 15 14 10 17 162 -95 162 -119 152 -114 135 -63 -96
299 -97 300 -78 313 10 7 68 50 128 94 61 45 119 88 130 96 17 12 -3 14 -162
14 l-182 1 -53 165 c-29 91 -56 165 -59 165 -3 0 -23 -51 -44 -112z"/>
<path d="M840 5312 l-55 -167 -173 -2 c-96 -1 -176 -3 -178 -5 -2 -2 59 -50
136 -107 77 -56 140 -108 140 -114 0 -6 -9 -38 -20 -71 -10 -34 -33 -103 -50
-155 -16 -52 -28 -96 -25 -99 2 -2 63 39 136 93 73 53 137 99 143 101 6 2 74
-42 151 -100 77 -57 141 -103 142 -102 1 1 -22 78 -53 171 -30 93 -51 172 -47
175 5 4 70 53 147 109 103 75 132 101 115 102 -13 0 -95 0 -181 0 l-157 0 -52
162 c-28 89 -54 165 -58 169 -3 3 -31 -69 -61 -160z"/>
<path d="M6097 5472 c-4 -6 -30 -75 -56 -154 -27 -79 -52 -151 -56 -160 -6
-14 -27 -16 -182 -17 -96 0 -176 -1 -178 -3 -2 -2 62 -50 141 -107 123 -89
143 -108 138 -125 -51 -163 -78 -248 -90 -278 -7 -21 -10 -38 -5 -38 5 0 70
45 145 100 74 55 138 100 141 100 4 0 226 -159 282 -202 9 -7 10 -3 3 19 -18
59 -59 191 -79 253 -11 35 -17 68 -13 71 4 4 69 52 146 108 80 59 130 101 120
102 -11 0 -92 0 -181 0 l-162 0 -51 162 c-28 89 -52 166 -54 172 -1 5 -6 4 -9
-3z"/>
<path d="M3455 5125 c-171 -37 -292 -180 -300 -357 -11 -226 157 -405 384
-406 148 0 274 82 347 225 26 52 29 68 29 158 0 91 -3 106 -31 165 -78 166
-252 252 -429 215z"/>
<path d="M2194 4416 c-79 -34 -114 -138 -75 -218 26 -56 67 -79 186 -106 345
-79 553 -121 690 -138 33 -5 63 -9 68 -10 4 -1 19 -2 33 -3 l26 -1 -7 -262
c-3 -145 -8 -283 -9 -308 -2 -25 -7 -92 -11 -149 -4 -57 -8 -113 -11 -124 -2
-11 -6 -48 -9 -81 -19 -229 -80 -479 -180 -741 -55 -144 -76 -247 -54 -261 5
-3 9 -12 9 -21 0 -53 103 -125 179 -125 114 1 162 47 229 220 45 115 125 353
137 406 2 12 9 39 14 61 6 22 12 54 15 70 3 17 10 55 16 85 10 55 22 134 23
158 0 6 5 12 11 13 93 7 92 8 100 -51 4 -25 9 -56 11 -70 9 -64 16 -94 60
-290 8 -39 89 -276 129 -380 61 -158 107 -208 204 -223 41 -7 127 25 162 58
42 40 64 104 57 163 -3 26 -29 108 -57 182 -113 295 -162 517 -196 875 -14
152 -27 439 -28 635 l-1 154 35 7 c19 4 58 10 85 13 100 12 259 41 460 86 77
17 151 33 165 36 91 18 186 47 209 64 91 64 78 216 -21 269 -53 28 -73 27
-256 -15 -205 -46 -193 -43 -226 -50 -17 -3 -95 -18 -175 -34 -80 -15 -173
-32 -206 -35 -33 -4 -68 -9 -77 -11 -21 -3 -129 -14 -194 -20 -63 -5 -348 -5
-394 0 -19 2 -67 7 -106 10 -39 4 -80 8 -90 10 -11 2 -44 7 -74 11 -30 4 -62
9 -70 10 -182 33 -293 56 -474 96 -235 52 -264 56 -312 35z"/>
<path d="M491 3947 c-6 -16 -32 -93 -58 -173 l-48 -144 -178 -2 -179 -3 141
-103 c78 -57 141 -108 141 -114 0 -5 -23 -82 -51 -170 -28 -88 -49 -161 -47
-162 1 -2 66 43 143 100 76 57 142 104 145 104 3 0 68 -47 145 -104 77 -58
141 -103 143 -102 1 2 -2 14 -7 27 -17 41 -102 311 -99 314 2 1 68 50 147 109
l144 106 -180 0 -181 0 -10 28 c-6 15 -29 88 -52 162 -23 74 -43 140 -44 145
-2 6 -9 -3 -15 -18z"/>
<path d="M6446 3822 c-27 -81 -54 -157 -59 -169 -10 -23 -13 -23 -190 -23
l-180 0 129 -95 c71 -53 137 -101 147 -108 17 -11 15 -20 -28 -157 -25 -80
-51 -156 -56 -169 -5 -13 -8 -25 -7 -27 2 -2 68 44 147 102 l143 105 27 -17
c14 -9 76 -54 136 -99 131 -97 136 -100 130 -83 -15 44 -89 278 -95 304 -7 31
-5 32 135 135 l143 104 -178 3 -179 2 -52 163 c-29 89 -55 165 -58 169 -3 4
-28 -59 -55 -140z"/>
<path d="M891 2440 c-6 -14 -33 -90 -59 -170 l-49 -145 -182 -5 -181 -5 127
-93 c71 -51 136 -98 145 -105 16 -12 13 -25 -33 -171 -27 -87 -52 -162 -55
-167 -15 -24 25 -1 133 77 179 131 153 123 220 71 94 -72 215 -157 224 -157 4
0 -2 26 -13 58 -27 76 -88 275 -85 278 1 1 67 49 147 108 l144 106 -182 0
-181 0 -52 163 c-28 89 -52 167 -54 172 -1 6 -7 -1 -14 -15z"/>
<path d="M6076 2403 c-8 -27 -32 -100 -54 -163 l-40 -115 -183 -5 c-165 -4
-181 -6 -159 -19 14 -8 27 -17 30 -20 4 -5 195 -146 232 -172 7 -5 -18 -94
-87 -307 -17 -51 -29 -57 143 70 72 54 134 98 137 98 3 0 49 -32 103 -72 164
-122 196 -143 188 -122 -8 19 -81 245 -97 298 -5 16 -8 30 -6 31 1 1 67 50
147 109 l144 106 -181 0 -182 0 -53 165 c-29 91 -56 165 -60 165 -4 0 -14 -21
-22 -47z"/>
<path d="M1997 1343 c-4 -7 -28 -72 -53 -145 -71 -211 -51 -188 -158 -187 -50
0 -131 0 -180 0 l-88 -1 138 -101 c77 -56 142 -105 146 -108 7 -6 -66 -256
-93 -320 -8 -19 -7 -22 5 -18 14 6 115 77 222 158 28 22 54 39 57 39 6 0 215
-148 227 -160 10 -11 62 -42 64 -38 2 2 -21 77 -50 167 -50 153 -52 165 -36
178 9 7 74 55 143 105 70 51 126 94 124 96 -2 2 -82 3 -179 3 l-175 1 -51 161
c-28 89 -53 166 -54 172 -1 5 -6 4 -9 -2z"/>
<path d="M4951 1218 c-24 -73 -51 -150 -58 -170 l-15 -36 -141 -1 c-78 0 -159
0 -181 -1 -38 0 -37 -1 100 -101 77 -56 142 -105 146 -108 4 -4 -11 -63 -32
-131 -22 -69 -47 -147 -55 -174 l-15 -48 33 24 c97 74 257 188 263 188 3 0 65
-43 136 -96 148 -109 163 -117 149 -83 -6 13 -30 89 -55 168 l-45 144 26 21
c15 11 81 60 146 109 l120 87 -49 1 c-27 0 -108 0 -181 0 l-132 0 -51 158
c-27 86 -50 163 -50 169 0 38 -20 -4 -59 -120z"/>
<path d="M3497 944 c-3 -6 -19 -51 -36 -100 -16 -49 -34 -101 -39 -114 -6 -14
-18 -46 -27 -72 l-16 -48 -180 -2 -179 -3 137 -100 c75 -55 140 -102 144 -105
8 -6 6 -15 -51 -195 -18 -55 -36 -113 -40 -128 l-9 -29 27 18 c14 9 31 21 37
26 27 22 202 151 217 159 12 6 23 5 35 -5 22 -18 243 -179 260 -189 12 -7 12
-8 -47 178 -50 156 -50 159 -42 164 5 4 70 51 145 106 l137 100 -180 3 -179 2
-52 163 c-28 89 -52 166 -53 172 -1 5 -5 5 -9 -1z"/>
</g>
</svg>
